<svg width="24" height="24" viewBox="0 0 24 24" fill="none" xmlns="http://www.w3.org/2000/svg">
<path d="M21.5999 11.9999C21.5999 14.546 20.5885 16.9878 18.7881 18.7881C16.9878 20.5885 14.546 21.5999 11.9999 21.5999C9.45382 21.5999 7.01203 20.5885 5.21168 18.7881C3.41133 16.9878 2.3999 14.546 2.3999 11.9999C2.3999 9.45382 3.41133 7.01203 5.21168 5.21168C7.01203 3.41133 9.45382 2.3999 11.9999 2.3999C14.546 2.3999 16.9878 3.41133 18.7881 5.21168C20.5885 7.01203 21.5999 9.45382 21.5999 11.9999ZM7.1999 11.9999C7.1999 12.159 7.26312 12.3116 7.37564 12.4242C7.48816 12.5367 7.64077 12.5999 7.7999 12.5999H11.3999V16.1999C11.3999 16.359 11.4631 16.5116 11.5756 16.6242C11.6882 16.7367 11.8408 16.7999 11.9999 16.7999C12.159 16.7999 12.3116 16.7367 12.4242 16.6242C12.5367 16.5116 12.5999 16.359 12.5999 16.1999V12.5999H16.1999C16.359 12.5999 16.5116 12.5367 16.6242 12.4242C16.7367 12.3116 16.7999 12.159 16.7999 11.9999C16.7999 11.8408 16.7367 11.6882 16.6242 11.5756C16.5116 11.4631 16.359 11.3999 16.1999 11.3999H12.5999V7.7999C12.5999 7.64077 12.5367 7.48816 12.4242 7.37564C12.3116 7.26312 12.159 7.1999 11.9999 7.1999C11.8408 7.1999 11.6882 7.26312 11.5756 7.37564C11.4631 7.48816 11.3999 7.64077 11.3999 7.7999V11.3999H7.7999C7.64077 11.3999 7.48816 11.4631 7.37564 11.5756C7.26312 11.6882 7.1999 11.8408 7.1999 11.9999Z" fill="black"/>
</svg>
