<svg width="24" height="24" viewBox="0 0 24 24" fill="none" xmlns="http://www.w3.org/2000/svg">
<path d="M4.57492 4.57492C4.85621 4.29372 5.23768 4.13574 5.63542 4.13574C6.03317 4.13574 6.41463 4.29372 6.69592 4.57492L11.9999 9.87892L17.3039 4.57492C17.5868 4.30168 17.9657 4.15049 18.359 4.15391C18.7523 4.15733 19.1285 4.31508 19.4066 4.59319C19.6848 4.87131 19.8425 5.24752 19.8459 5.64082C19.8493 6.03412 19.6982 6.41302 19.4249 6.69592L14.1209 11.9999L19.4249 17.3039C19.6982 17.5868 19.8493 17.9657 19.8459 18.359C19.8425 18.7523 19.6848 19.1285 19.4066 19.4066C19.1285 19.6848 18.7523 19.8425 18.359 19.8459C17.9657 19.8493 17.5868 19.6982 17.3039 19.4249L11.9999 14.1209L6.69592 19.4249C6.41302 19.6982 6.03412 19.8493 5.64082 19.8459C5.24752 19.8425 4.87131 19.6848 4.59319 19.4066C4.31508 19.1285 4.15733 18.7523 4.15391 18.359C4.15049 17.9657 4.30168 17.5868 4.57492 17.3039L9.87892 11.9999L4.57492 6.69592C4.29372 6.41463 4.13574 6.03317 4.13574 5.63542C4.13574 5.23768 4.29372 4.85621 4.57492 4.57492Z" fill="black"/>
</svg>
