<svg width="24" height="24" viewBox="0 0 24 24" fill="none" xmlns="http://www.w3.org/2000/svg">
<path d="M7.20005 4.7999C7.20005 4.16338 7.45291 3.55293 7.90299 3.10285C8.35308 2.65276 8.96353 2.3999 9.60005 2.3999H16.8C17.4366 2.3999 18.047 2.65276 18.4971 3.10285C18.9472 3.55293 19.2 4.16338 19.2 4.7999V16.7999C19.2 17.4364 18.9472 18.0469 18.4971 18.497C18.047 18.947 17.4366 19.1999 16.8 19.1999H9.60005C8.96353 19.1999 8.35308 18.947 7.90299 18.497C7.45291 18.0469 7.20005 17.4364 7.20005 16.7999V4.7999ZM4.80005 7.1999C4.80006 6.77862 4.91096 6.36477 5.1216 5.99994C5.33225 5.6351 5.63521 5.33214 6.00005 5.1215V17.3999C6.00005 18.1956 6.31612 18.9586 6.87873 19.5212C7.44134 20.0838 8.2044 20.3999 9.00005 20.3999H16.4784C16.2678 20.7647 15.9648 21.0677 15.6 21.2783C15.2352 21.489 14.8213 21.5999 14.4 21.5999H9.00005C7.88614 21.5999 6.81785 21.1574 6.0302 20.3698C5.24255 19.5821 4.80005 18.5138 4.80005 17.3999V7.1999Z" fill="black"/>
</svg>
