<svg width="24" height="24" viewBox="0 0 24 24" fill="none" xmlns="http://www.w3.org/2000/svg">
<path d="M13.447 20.905C13.6126 20.8238 13.7521 20.6979 13.8499 20.5415C13.9476 20.3851 13.9996 20.2044 14 20.02V14.7C14 14.438 14.105 14.186 14.293 14L20.414 7.94602C20.5994 7.763 20.7466 7.54503 20.8472 7.30472C20.9478 7.0644 20.9997 6.80653 21 6.54602V3.99002C20.9995 3.85931 20.9732 3.73 20.9226 3.60947C20.8721 3.48894 20.7982 3.37957 20.7053 3.28761C20.6124 3.19566 20.5023 3.12292 20.3813 3.07357C20.2603 3.02422 20.1307 2.99923 20 3.00002H4C3.447 3.00002 3 3.44202 3 3.99002V6.54602C3 7.07102 3.211 7.57502 3.586 7.94602L9.707 14C9.79974 14.0915 9.8734 14.2005 9.92369 14.3206C9.97399 14.4408 9.99993 14.5698 10 14.7V21.01C10 21.745 10.782 22.223 11.447 21.894L13.447 20.905Z" fill="black"/>
</svg>
