<svg width="40" height="40" viewBox="0 0 40 40" fill="none" xmlns="http://www.w3.org/2000/svg">
<g style="mix-blend-mode:luminosity">
<g filter="url(#filter0_f_98_516)">
<path d="M19.9999 28.5716C25.0494 28.5716 29.1428 24.4782 29.1428 19.4287C29.1428 14.3793 25.0494 10.2859 19.9999 10.2859C14.9505 10.2859 10.8571 14.3793 10.8571 19.4287C10.8571 24.4782 14.9505 28.5716 19.9999 28.5716Z" fill="url(#paint0_linear_98_516)"/>
<path fill-rule="evenodd" clip-rule="evenodd" d="M22.4762 17.7527C23.2553 18.3136 24.1929 18.6115 25.1528 18.6032V16.7271C24.9656 16.7252 24.7791 16.7043 24.5962 16.6646V18.1655C23.6448 18.1684 22.7168 17.8707 21.9447 17.315V21.1672C21.9433 21.8051 21.769 22.4307 21.4404 22.9773C21.1117 23.524 20.6409 23.9713 20.0781 24.2716C19.5154 24.5719 18.8817 24.714 18.2446 24.6827C17.6075 24.6514 16.9908 24.4479 16.4602 24.0939C16.9502 24.5919 17.5771 24.9331 18.2613 25.0744C18.9455 25.2156 19.6562 25.1504 20.3034 24.8871C20.9505 24.6239 21.5048 24.1743 21.8961 23.5956C22.2874 23.0168 22.498 22.3349 22.5012 21.6363V17.7527H22.4762ZM23.1641 15.8329C22.77 15.406 22.5281 14.8607 22.4762 14.2819V14.0318H21.9447C22.0094 14.401 22.1515 14.7524 22.3617 15.0628C22.5719 15.3732 22.8454 15.6356 23.1641 15.8329ZM17.6484 22.6118C17.4467 22.3388 17.3363 22.0091 17.3328 21.6697C17.3294 21.3303 17.433 20.9985 17.6291 20.7214C17.8251 20.4443 18.1035 20.2361 18.4248 20.1264C18.746 20.0167 19.0936 20.0111 19.4182 20.1104V18.153C19.2339 18.127 19.0477 18.1165 18.8616 18.1217V19.6351C18.7037 19.5858 18.5393 19.5605 18.3738 19.56C18.0117 19.5613 17.6606 19.6843 17.3769 19.9093C17.0932 20.1342 16.8934 20.4481 16.8097 20.8003C16.7259 21.1526 16.7631 21.5228 16.9153 21.8514C17.0674 22.1799 17.3256 22.4478 17.6484 22.6118Z" fill="#EE1D52"/>
<path fill-rule="evenodd" clip-rule="evenodd" d="M21.9198 17.29C22.692 17.8457 23.62 18.1434 24.5714 18.1405V16.6396C24.0304 16.5223 23.5389 16.2405 23.1643 15.8329C22.8455 15.6356 22.5721 15.3732 22.3619 15.0628C22.1517 14.7524 22.0096 14.401 21.9448 14.0318H20.5565V21.6425C20.5137 21.9882 20.3754 22.3151 20.1573 22.5866C19.9391 22.8582 19.6497 23.0637 19.3214 23.18C18.9931 23.2964 18.6389 23.319 18.2984 23.2455C17.958 23.1719 17.6447 23.005 17.3937 22.7634C17.1428 22.5219 16.964 22.2153 16.8774 21.8779C16.7909 21.5405 16.8 21.1856 16.9037 20.8531C17.0074 20.5206 17.2016 20.2235 17.4646 19.9951C17.7276 19.7667 18.049 19.6161 18.3928 19.56C18.5583 19.5595 18.7229 19.5848 18.8806 19.6351V18.1217C18.2098 18.0712 17.5396 18.2271 16.9601 18.5685C16.3805 18.91 15.9193 19.4206 15.6384 20.0318C15.3575 20.643 15.2704 21.3255 15.3886 21.9876C15.5069 22.6498 15.825 23.2599 16.3002 23.7361C16.7753 24.2122 17.3848 24.5315 18.0467 24.6512C18.7086 24.7708 19.3913 24.6851 20.0031 24.4054C20.6149 24.1258 21.1264 23.6656 21.4691 23.0868C21.8117 22.5079 21.969 21.8381 21.9198 21.1672V17.29Z" fill="white"/>
<path fill-rule="evenodd" clip-rule="evenodd" d="M24.5717 16.6393V16.2328C24.0744 16.2343 23.5867 16.0956 23.1646 15.8326C23.5379 16.2418 24.0299 16.5239 24.5717 16.6393ZM21.9452 14.0315C21.9452 13.9627 21.9452 13.8877 21.9452 13.8126V13.5687H20.0253V21.1669C20.0253 21.5932 19.856 22.002 19.5546 22.3034C19.2531 22.6048 18.8443 22.7741 18.4181 22.7741C18.1666 22.7738 17.9185 22.7161 17.6927 22.6053C17.8977 22.8702 18.1801 23.0647 18.5007 23.1618C18.8213 23.2589 19.1641 23.2538 19.4817 23.1473C19.7993 23.0408 20.0758 22.838 20.273 22.5672C20.4701 22.2964 20.5781 21.9709 20.5819 21.636V14.0315H21.9452ZM18.8996 18.1214V17.6899C18.7373 17.6775 18.5742 17.6775 18.4118 17.6899C17.6562 17.6874 16.9198 17.9286 16.312 18.3776C15.7042 18.8266 15.2573 19.4595 15.0376 20.1826C14.8179 20.9056 14.837 21.6802 15.0923 22.3914C15.3475 23.1027 15.8252 23.7128 16.4544 24.1312C15.9648 23.6414 15.6305 23.0182 15.4933 22.3394C15.3562 21.6606 15.4222 20.9565 15.6832 20.315C15.9442 19.6736 16.3885 19.1234 16.9606 18.7332C17.5327 18.343 18.2072 18.1302 18.8996 18.1214Z" fill="#69C9D0"/>
</g>
<path d="M19.9999 28.5716C25.0494 28.5716 29.1428 24.4782 29.1428 19.4287C29.1428 14.3793 25.0494 10.2859 19.9999 10.2859C14.9505 10.2859 10.8571 14.3793 10.8571 19.4287C10.8571 24.4782 14.9505 28.5716 19.9999 28.5716Z" fill="url(#paint1_linear_98_516)"/>
<path fill-rule="evenodd" clip-rule="evenodd" d="M22.4762 17.7527C23.2553 18.3136 24.1929 18.6115 25.1528 18.6032V16.7271C24.9656 16.7252 24.7791 16.7043 24.5962 16.6646V18.1655C23.6448 18.1684 22.7168 17.8707 21.9447 17.315V21.1672C21.9433 21.8051 21.769 22.4307 21.4404 22.9773C21.1117 23.524 20.6409 23.9713 20.0781 24.2716C19.5154 24.5719 18.8817 24.714 18.2446 24.6827C17.6075 24.6514 16.9908 24.4479 16.4602 24.0939C16.9502 24.5919 17.5771 24.9331 18.2613 25.0744C18.9455 25.2156 19.6562 25.1504 20.3034 24.8871C20.9505 24.6239 21.5048 24.1743 21.8961 23.5956C22.2874 23.0168 22.498 22.3349 22.5012 21.6363V17.7527H22.4762ZM23.1641 15.8329C22.77 15.406 22.5281 14.8607 22.4762 14.2819V14.0318H21.9447C22.0094 14.401 22.1515 14.7524 22.3617 15.0628C22.5719 15.3732 22.8454 15.6356 23.1641 15.8329ZM17.6484 22.6118C17.4467 22.3388 17.3363 22.0091 17.3328 21.6697C17.3294 21.3303 17.433 20.9985 17.6291 20.7214C17.8251 20.4443 18.1035 20.2361 18.4248 20.1264C18.746 20.0167 19.0936 20.0111 19.4182 20.1104V18.153C19.2339 18.127 19.0477 18.1165 18.8616 18.1217V19.6351C18.7037 19.5858 18.5393 19.5605 18.3738 19.56C18.0117 19.5613 17.6606 19.6843 17.3769 19.9093C17.0932 20.1342 16.8934 20.4481 16.8097 20.8003C16.7259 21.1526 16.7631 21.5228 16.9153 21.8514C17.0674 22.1799 17.3256 22.4478 17.6484 22.6118Z" fill="#EE1D52"/>
<path fill-rule="evenodd" clip-rule="evenodd" d="M21.9198 17.29C22.692 17.8457 23.62 18.1434 24.5714 18.1405V16.6396C24.0304 16.5223 23.5389 16.2405 23.1643 15.8329C22.8455 15.6356 22.5721 15.3732 22.3619 15.0628C22.1517 14.7524 22.0096 14.401 21.9448 14.0318H20.5565V21.6425C20.5137 21.9882 20.3754 22.3151 20.1573 22.5866C19.9391 22.8582 19.6497 23.0637 19.3214 23.18C18.9931 23.2964 18.6389 23.319 18.2984 23.2455C17.958 23.1719 17.6447 23.005 17.3937 22.7634C17.1428 22.5219 16.964 22.2153 16.8774 21.8779C16.7909 21.5405 16.8 21.1856 16.9037 20.8531C17.0074 20.5206 17.2016 20.2235 17.4646 19.9951C17.7276 19.7667 18.049 19.6161 18.3928 19.56C18.5583 19.5595 18.7229 19.5848 18.8806 19.6351V18.1217C18.2098 18.0712 17.5396 18.2271 16.9601 18.5685C16.3805 18.91 15.9193 19.4206 15.6384 20.0318C15.3575 20.643 15.2704 21.3255 15.3886 21.9876C15.5069 22.6498 15.825 23.2599 16.3002 23.7361C16.7753 24.2122 17.3848 24.5315 18.0467 24.6512C18.7086 24.7708 19.3913 24.6851 20.0031 24.4054C20.6149 24.1258 21.1264 23.6656 21.4691 23.0868C21.8117 22.5079 21.969 21.8381 21.9198 21.1672V17.29Z" fill="white"/>
<path fill-rule="evenodd" clip-rule="evenodd" d="M24.5717 16.6393V16.2328C24.0744 16.2343 23.5867 16.0956 23.1646 15.8326C23.5379 16.2418 24.0299 16.5239 24.5717 16.6393ZM21.9452 14.0315C21.9452 13.9627 21.9452 13.8877 21.9452 13.8126V13.5687H20.0253V21.1669C20.0253 21.5932 19.856 22.002 19.5546 22.3034C19.2531 22.6048 18.8443 22.7741 18.4181 22.7741C18.1666 22.7738 17.9185 22.7161 17.6927 22.6053C17.8977 22.8702 18.1801 23.0647 18.5007 23.1618C18.8213 23.2589 19.1641 23.2538 19.4817 23.1473C19.7993 23.0408 20.0758 22.838 20.273 22.5672C20.4701 22.2964 20.5781 21.9709 20.5819 21.636V14.0315H21.9452ZM18.8996 18.1214V17.6899C18.7373 17.6775 18.5742 17.6775 18.4118 17.6899C17.6562 17.6874 16.9198 17.9286 16.312 18.3776C15.7042 18.8266 15.2573 19.4595 15.0376 20.1826C14.8179 20.9056 14.837 21.6802 15.0923 22.3914C15.3475 23.1027 15.8252 23.7128 16.4544 24.1312C15.9648 23.6414 15.6305 23.0182 15.4933 22.3394C15.3562 21.6606 15.4222 20.9565 15.6832 20.315C15.9442 19.6736 16.3885 19.1234 16.9606 18.7332C17.5327 18.343 18.2072 18.1302 18.8996 18.1214Z" fill="#69C9D0"/>
</g>
<defs>
<filter id="filter0_f_98_516" x="2.71752" y="2.14635" width="34.5648" height="34.5648" filterUnits="userSpaceOnUse" color-interpolation-filters="sRGB">
<feFlood flood-opacity="0" result="BackgroundImageFix"/>
<feBlend mode="normal" in="SourceGraphic" in2="BackgroundImageFix" result="shape"/>
<feGaussianBlur stdDeviation="4.06977" result="effect1_foregroundBlur_98_516"/>
</filter>
<linearGradient id="paint0_linear_98_516" x1="13.5336" y1="12.9625" x2="26.4662" y2="25.895" gradientUnits="userSpaceOnUse">
<stop stop-color="#7500FF"/>
<stop offset="1" stop-color="#441081"/>
</linearGradient>
<linearGradient id="paint1_linear_98_516" x1="13.5336" y1="12.9625" x2="26.4662" y2="25.895" gradientUnits="userSpaceOnUse">
<stop stop-color="#22004A"/>
<stop offset="0.96" stop-color="#020003"/>
<stop offset="1"/>
</linearGradient>
</defs>
</svg>
