<svg width="40" height="40" viewBox="0 0 40 40" fill="none" xmlns="http://www.w3.org/2000/svg">
<g style="mix-blend-mode:luminosity">
<g filter="url(#filter0_f_98_551)">
<path d="M29.1428 19.9894C29.1407 18.2438 28.6391 16.5353 27.697 15.0657C26.755 13.5962 25.412 12.427 23.8266 11.6964C22.2413 10.9658 20.48 10.7043 18.7508 10.9428C17.0216 11.1813 15.3968 11.9098 14.0684 13.0422C12.7401 14.1747 11.7636 15.6637 11.2545 17.3334C10.7454 19.0031 10.725 20.7836 11.1955 22.4646C11.6661 24.1455 12.608 25.6566 13.91 26.8193C15.2119 27.982 16.8195 28.7477 18.5428 29.0259V22.6347H16.2227V19.9894H18.5428V17.9882C18.5428 15.6994 19.9124 14.4299 22.0011 14.4299C22.6863 14.4395 23.3698 14.5001 24.046 14.6112V16.8625H22.8891C22.6926 16.8366 22.4929 16.855 22.3044 16.9165C22.116 16.9779 21.9438 17.0808 21.8004 17.2176C21.657 17.3544 21.5461 17.5216 21.4759 17.7069C21.4056 17.8922 21.3778 18.0909 21.3945 18.2884V19.9894H23.9335L23.5145 22.6347H21.4007V29.0259C23.5562 28.6891 25.5206 27.5937 26.94 25.9369C28.3595 24.2802 29.1406 22.171 29.1428 19.9894Z" fill="url(#paint0_linear_98_551)"/>
<path d="M21.4633 28.9525V22.6973H23.5145H23.5679L23.5763 22.6445L23.9953 19.9992L24.0068 19.9268H23.9335H21.4571V18.2884H21.4573L21.4569 18.2831C21.441 18.095 21.4675 17.9057 21.5344 17.7291C21.6014 17.5526 21.707 17.3933 21.8436 17.2629C21.9803 17.1326 22.1444 17.0346 22.3239 16.976C22.5034 16.9175 22.6937 16.8999 22.8809 16.9246L22.8808 16.9252H22.8891H24.046H24.1086V16.8625V14.6112V14.5581L24.0562 14.5494C23.3769 14.4378 22.6903 14.3769 22.002 14.3673H22.0011C20.944 14.3673 20.0621 14.6887 19.4444 15.3064C18.8266 15.9242 18.4802 16.8312 18.4802 17.9882V19.9268H16.2227H16.1601V19.9894V22.6347V22.6973H16.2227H18.4802V28.9521C16.7962 28.6662 15.2264 27.911 13.9517 26.7726C12.6586 25.6179 11.7231 24.1171 11.2558 22.4477C10.7885 20.7782 10.8088 19.0099 11.3144 17.3517C11.82 15.6934 12.7898 14.2146 14.1091 13.0899C15.4283 11.9652 17.042 11.2417 18.7594 11.0048C20.4767 10.768 22.226 11.0277 23.8004 11.7533C25.3749 12.4789 26.7087 13.6401 27.6443 15.0995C28.5799 16.559 29.0781 18.2558 29.0802 19.9894C29.078 22.1561 28.3022 24.2508 26.8925 25.8962C25.4987 27.5231 23.5757 28.605 21.4633 28.9525Z" stroke="black" stroke-width="0.125224"/>
</g>
<circle cx="19.9999" cy="19.9999" r="9.14286" fill="white"/>
<path d="M29.1428 19.9894C29.1407 18.2438 28.6391 16.5353 27.697 15.0657C26.755 13.5962 25.412 12.427 23.8266 11.6964C22.2413 10.9658 20.48 10.7043 18.7508 10.9428C17.0216 11.1813 15.3968 11.9098 14.0684 13.0422C12.7401 14.1747 11.7636 15.6637 11.2545 17.3334C10.7454 19.0031 10.725 20.7836 11.1955 22.4646C11.6661 24.1455 12.608 25.6566 13.91 26.8193C15.2119 27.982 16.8195 28.7477 18.5428 29.0259V22.6347H16.2227V19.9894H18.5428V17.9882C18.5428 15.6994 19.9124 14.4299 22.0011 14.4299C22.6863 14.4395 23.3698 14.5001 24.046 14.6112V16.8625H22.8891C22.6926 16.8366 22.4929 16.855 22.3044 16.9165C22.116 16.9779 21.9438 17.0808 21.8004 17.2176C21.657 17.3544 21.5461 17.5216 21.4759 17.7069C21.4056 17.8922 21.3778 18.0909 21.3945 18.2884V19.9894H23.9335L23.5145 22.6347H21.4007V29.0259C23.5562 28.6891 25.5206 27.5937 26.94 25.9369C28.3595 24.2802 29.1406 22.171 29.1428 19.9894Z" fill="url(#paint1_linear_98_551)"/>
</g>
<defs>
<filter id="filter0_f_98_551" x="2.0914" y="2.0914" width="35.8171" height="35.7002" filterUnits="userSpaceOnUse" color-interpolation-filters="sRGB">
<feFlood flood-opacity="0" result="BackgroundImageFix"/>
<feBlend mode="normal" in="SourceGraphic" in2="BackgroundImageFix" result="shape"/>
<feGaussianBlur stdDeviation="4.38283" result="effect1_foregroundBlur_98_551"/>
</filter>
<linearGradient id="paint0_linear_98_551" x1="13.5086" y1="13.5293" x2="26.4412" y2="26.4557" gradientUnits="userSpaceOnUse">
<stop stop-color="#4676ED"/>
<stop offset="0.19" stop-color="#436DE4"/>
<stop offset="0.49" stop-color="#3C55CD"/>
<stop offset="0.87" stop-color="#302EA8"/>
<stop offset="1" stop-color="#2B1E99"/>
</linearGradient>
<linearGradient id="paint1_linear_98_551" x1="13.5086" y1="13.5293" x2="26.4412" y2="26.4557" gradientUnits="userSpaceOnUse">
<stop stop-color="#4676ED"/>
<stop offset="0.19" stop-color="#436DE4"/>
<stop offset="0.49" stop-color="#3C55CD"/>
<stop offset="0.87" stop-color="#302EA8"/>
<stop offset="1" stop-color="#2B1E99"/>
</linearGradient>
</defs>
</svg>
