<svg width="40" height="40" viewBox="0 0 40 40" fill="none" xmlns="http://www.w3.org/2000/svg">
<g style="mix-blend-mode:luminosity">
<g filter="url(#filter0_f_98_538)">
<path d="M19.9999 28.5716C25.0494 28.5716 29.1428 24.4782 29.1428 19.4287C29.1428 14.3793 25.0494 10.2859 19.9999 10.2859C14.9505 10.2859 10.8571 14.3793 10.8571 19.4287C10.8571 24.4782 14.9505 28.5716 19.9999 28.5716Z" fill="url(#paint0_linear_98_538)"/>
<path d="M22.8395 15.9703C22.7158 15.9703 22.5949 16.007 22.492 16.0757C22.3892 16.1444 22.309 16.2421 22.2617 16.3564C22.2144 16.4707 22.202 16.5964 22.2261 16.7177C22.2503 16.839 22.3098 16.9504 22.3973 17.0379C22.4847 17.1254 22.5962 17.1849 22.7175 17.2091C22.8388 17.2332 22.9645 17.2208 23.0788 17.1735C23.1931 17.1261 23.2907 17.046 23.3595 16.9431C23.4282 16.8403 23.4648 16.7194 23.4648 16.5957C23.4648 16.4298 23.399 16.2708 23.2817 16.1535C23.1644 16.0362 23.0053 15.9703 22.8395 15.9703Z" fill="white"/>
<path d="M20.0438 16.7896C19.5196 16.7883 19.0068 16.9429 18.5705 17.2337C18.1343 17.5244 17.7943 17.9382 17.5937 18.4226C17.3931 18.9069 17.3409 19.44 17.4438 19.954C17.5467 20.4681 17.8 20.94 18.1716 21.3098C18.5432 21.6796 19.0162 21.9307 19.5308 22.0311C20.0453 22.1316 20.5781 22.0769 21.0615 21.874C21.5449 21.6711 21.9571 21.3291 22.2458 20.8915C22.5345 20.4539 22.6866 19.9403 22.6829 19.4161C22.6779 18.7189 22.3979 18.0518 21.9037 17.5599C21.4095 17.068 20.7411 16.7912 20.0438 16.7896ZM20.0438 21.1233C19.7084 21.1246 19.3801 21.0262 19.1006 20.8408C18.8211 20.6553 18.6029 20.3911 18.4736 20.0815C18.3444 19.7719 18.3099 19.431 18.3746 19.1018C18.4393 18.7727 18.6002 18.4701 18.837 18.2325C19.0738 17.9948 19.3757 17.8328 19.7046 17.7669C20.0336 17.701 20.3746 17.7342 20.6847 17.8623C20.9947 17.9904 21.2598 18.2076 21.4463 18.4864C21.6328 18.7652 21.7323 19.0932 21.7323 19.4286C21.7274 19.8743 21.5477 20.3003 21.232 20.6149C20.9162 20.9295 20.4896 21.1076 20.0438 21.1108V21.1233Z" fill="white"/>
<path d="M22.1395 24.7817H17.862C17.0083 24.7801 16.1901 24.4402 15.5865 23.8366C14.9829 23.233 14.643 22.4148 14.6414 21.5611V17.2773C14.643 16.4237 14.9829 15.6055 15.5865 15.0018C16.1901 14.3982 17.0083 14.0584 17.862 14.0567H22.1395C22.9932 14.0584 23.8114 14.3982 24.415 15.0018C25.0186 15.6055 25.3585 16.4237 25.3601 17.2773V21.5611C25.3585 22.4148 25.0186 23.233 24.415 23.8366C23.8114 24.4402 22.9932 24.7801 22.1395 24.7817ZM17.862 15.0635C17.2754 15.0652 16.7132 15.299 16.2984 15.7138C15.8836 16.1286 15.6498 16.6907 15.6482 17.2773V21.5611C15.6499 22.1472 15.8838 22.7086 16.2988 23.1224C16.7138 23.5363 17.2759 23.7686 17.862 23.7686H22.1395C22.7256 23.7686 23.2877 23.5363 23.7027 23.1224C24.1177 22.7086 24.3516 22.1472 24.3533 21.5611V17.2773C24.3516 16.6907 24.1179 16.1286 23.7031 15.7138C23.2883 15.299 22.7261 15.0652 22.1395 15.0635H17.862Z" fill="white"/>
</g>
<path d="M19.9999 28.5716C25.0494 28.5716 29.1428 24.4782 29.1428 19.4287C29.1428 14.3793 25.0494 10.2859 19.9999 10.2859C14.9505 10.2859 10.8571 14.3793 10.8571 19.4287C10.8571 24.4782 14.9505 28.5716 19.9999 28.5716Z" fill="url(#paint1_linear_98_538)"/>
<path d="M19.9999 28.5716C25.0494 28.5716 29.1428 24.4782 29.1428 19.4287C29.1428 14.3793 25.0494 10.2859 19.9999 10.2859C14.9505 10.2859 10.8571 14.3793 10.8571 19.4287C10.8571 24.4782 14.9505 28.5716 19.9999 28.5716Z" fill="black" fill-opacity="0.2"/>
<path d="M22.8395 15.9703C22.7158 15.9703 22.5949 16.007 22.492 16.0757C22.3892 16.1444 22.309 16.2421 22.2617 16.3564C22.2144 16.4707 22.202 16.5964 22.2261 16.7177C22.2503 16.839 22.3098 16.9504 22.3973 17.0379C22.4847 17.1254 22.5962 17.1849 22.7175 17.2091C22.8388 17.2332 22.9645 17.2208 23.0788 17.1735C23.1931 17.1261 23.2907 17.046 23.3595 16.9431C23.4282 16.8403 23.4648 16.7194 23.4648 16.5957C23.4648 16.4298 23.399 16.2708 23.2817 16.1535C23.1644 16.0362 23.0053 15.9703 22.8395 15.9703Z" fill="white"/>
<path d="M20.0438 16.7896C19.5196 16.7883 19.0068 16.9429 18.5705 17.2337C18.1343 17.5244 17.7943 17.9382 17.5937 18.4226C17.3931 18.9069 17.3409 19.44 17.4438 19.954C17.5467 20.4681 17.8 20.94 18.1716 21.3098C18.5432 21.6796 19.0162 21.9307 19.5308 22.0311C20.0453 22.1316 20.5781 22.0769 21.0615 21.874C21.5449 21.6711 21.9571 21.3291 22.2458 20.8915C22.5345 20.4539 22.6866 19.9403 22.6829 19.4161C22.6779 18.7189 22.3979 18.0518 21.9037 17.5599C21.4095 17.068 20.7411 16.7912 20.0438 16.7896ZM20.0438 21.1233C19.7084 21.1246 19.3801 21.0262 19.1006 20.8408C18.8211 20.6553 18.6029 20.3911 18.4736 20.0815C18.3444 19.7719 18.3099 19.431 18.3746 19.1018C18.4393 18.7727 18.6002 18.4701 18.837 18.2325C19.0738 17.9948 19.3757 17.8328 19.7046 17.7669C20.0336 17.701 20.3746 17.7342 20.6847 17.8623C20.9947 17.9904 21.2598 18.2076 21.4463 18.4864C21.6328 18.7652 21.7323 19.0932 21.7323 19.4286C21.7274 19.8743 21.5477 20.3003 21.232 20.6149C20.9162 20.9295 20.4896 21.1076 20.0438 21.1108V21.1233Z" fill="white"/>
<path d="M22.1395 24.7817H17.862C17.0083 24.7801 16.1901 24.4402 15.5865 23.8366C14.9829 23.233 14.643 22.4148 14.6414 21.5611V17.2773C14.643 16.4237 14.9829 15.6055 15.5865 15.0018C16.1901 14.3982 17.0083 14.0584 17.862 14.0567H22.1395C22.9932 14.0584 23.8114 14.3982 24.415 15.0018C25.0186 15.6055 25.3585 16.4237 25.3601 17.2773V21.5611C25.3585 22.4148 25.0186 23.233 24.415 23.8366C23.8114 24.4402 22.9932 24.7801 22.1395 24.7817ZM17.862 15.0635C17.2754 15.0652 16.7132 15.299 16.2984 15.7138C15.8836 16.1286 15.6498 16.6907 15.6482 17.2773V21.5611C15.6499 22.1472 15.8838 22.7086 16.2988 23.1224C16.7138 23.5363 17.2759 23.7686 17.862 23.7686H22.1395C22.7256 23.7686 23.2877 23.5363 23.7027 23.1224C24.1177 22.7086 24.3516 22.1472 24.3533 21.5611V17.2773C24.3516 16.6907 24.1179 16.1286 23.7031 15.7138C23.2883 15.299 22.7261 15.0652 22.1395 15.0635H17.862Z" fill="white"/>
</g>
<defs>
<filter id="filter0_f_98_538" x="2.71752" y="2.14635" width="34.5648" height="34.5648" filterUnits="userSpaceOnUse" color-interpolation-filters="sRGB">
<feFlood flood-opacity="0" result="BackgroundImageFix"/>
<feBlend mode="normal" in="SourceGraphic" in2="BackgroundImageFix" result="shape"/>
<feGaussianBlur stdDeviation="4.06977" result="effect1_foregroundBlur_98_538"/>
</filter>
<linearGradient id="paint0_linear_98_538" x1="26.4662" y1="12.9625" x2="13.5336" y2="25.895" gradientUnits="userSpaceOnUse">
<stop stop-color="#FBE18A"/>
<stop offset="0.21" stop-color="#FCBB45"/>
<stop offset="0.38" stop-color="#F75274"/>
<stop offset="0.52" stop-color="#D53692"/>
<stop offset="0.74" stop-color="#8F39CE"/>
<stop offset="1" stop-color="#5B4FE9"/>
</linearGradient>
<linearGradient id="paint1_linear_98_538" x1="26.4662" y1="12.9625" x2="13.5336" y2="25.895" gradientUnits="userSpaceOnUse">
<stop stop-color="#FBE18A"/>
<stop offset="0.21" stop-color="#FCBB45"/>
<stop offset="0.38" stop-color="#F75274"/>
<stop offset="0.52" stop-color="#D53692"/>
<stop offset="0.74" stop-color="#8F39CE"/>
<stop offset="1" stop-color="#5B4FE9"/>
</linearGradient>
</defs>
</svg>
