<svg width="40" height="40" viewBox="0 0 40 40" fill="none" xmlns="http://www.w3.org/2000/svg">
<g style="mix-blend-mode:luminosity">
<g filter="url(#filter0_f_104_1260)">
<path d="M20 28.5712C25.0495 28.5712 29.1429 24.4778 29.1429 19.4284C29.1429 14.3789 25.0495 10.2855 20 10.2855C14.9506 10.2855 10.8572 14.3789 10.8572 19.4284C10.8572 24.4778 14.9506 28.5712 20 28.5712Z" fill="url(#paint0_linear_104_1260)"/>
<path d="M24.8968 18.0965C24.8968 17.5144 24.6655 16.956 24.2539 16.5444C23.8422 16.1328 23.2839 15.9015 22.7017 15.9015H17.0735C16.4913 15.9015 15.933 16.1328 15.5213 16.5444C15.1097 16.956 14.8784 17.5144 14.8784 18.0965V20.7106C14.8784 20.9988 14.9352 21.2842 15.0455 21.5506C15.1558 21.8169 15.3175 22.0589 15.5213 22.2627C15.7252 22.4665 15.9671 22.6282 16.2334 22.7385C16.4998 22.8488 16.7852 22.9056 17.0735 22.9056H22.7017C22.99 22.9056 23.2754 22.8488 23.5418 22.7385C23.8081 22.6282 24.05 22.4665 24.2539 22.2627C24.4577 22.0589 24.6194 21.8169 24.7297 21.5506C24.84 21.2842 24.8968 20.9988 24.8968 20.7106V18.0965ZM21.5949 19.6099L19.0934 20.8606C18.9933 20.9107 18.6619 20.8606 18.6619 20.7293V18.1716C18.6619 18.059 18.9996 17.984 19.0934 18.0402L21.5073 19.3535C21.5886 19.3973 21.6949 19.5474 21.5949 19.6099Z" fill="white"/>
</g>
<path d="M20 28.5712C25.0495 28.5712 29.1429 24.4778 29.1429 19.4284C29.1429 14.3789 25.0495 10.2855 20 10.2855C14.9506 10.2855 10.8572 14.3789 10.8572 19.4284C10.8572 24.4778 14.9506 28.5712 20 28.5712Z" fill="url(#paint1_linear_104_1260)"/>
<path d="M24.8968 18.0965C24.8968 17.5144 24.6655 16.956 24.2539 16.5444C23.8422 16.1328 23.2839 15.9015 22.7017 15.9015H17.0735C16.4913 15.9015 15.933 16.1328 15.5213 16.5444C15.1097 16.956 14.8784 17.5144 14.8784 18.0965V20.7106C14.8784 20.9988 14.9352 21.2842 15.0455 21.5506C15.1558 21.8169 15.3175 22.0589 15.5213 22.2627C15.7252 22.4665 15.9671 22.6282 16.2334 22.7385C16.4998 22.8488 16.7852 22.9056 17.0735 22.9056H22.7017C22.99 22.9056 23.2754 22.8488 23.5418 22.7385C23.8081 22.6282 24.05 22.4665 24.2539 22.2627C24.4577 22.0589 24.6194 21.8169 24.7297 21.5506C24.84 21.2842 24.8968 20.9988 24.8968 20.7106V18.0965ZM21.5949 19.6099L19.0934 20.8606C18.9933 20.9107 18.6619 20.8606 18.6619 20.7293V18.1716C18.6619 18.059 18.9996 17.984 19.0934 18.0402L21.5073 19.3535C21.5886 19.3973 21.6949 19.5474 21.5949 19.6099Z" fill="white"/>
</g>
<defs>
<filter id="filter0_f_104_1260" x="2.71764" y="2.14598" width="34.5647" height="34.5648" filterUnits="userSpaceOnUse" color-interpolation-filters="sRGB">
<feFlood flood-opacity="0" result="BackgroundImageFix"/>
<feBlend mode="normal" in="SourceGraphic" in2="BackgroundImageFix" result="shape"/>
<feGaussianBlur stdDeviation="4.06977" result="effect1_foregroundBlur_104_1260"/>
</filter>
<linearGradient id="paint0_linear_104_1260" x1="26.4663" y1="12.9621" x2="13.5337" y2="25.8947" gradientUnits="userSpaceOnUse">
<stop stop-color="#FF0000"/>
<stop offset="1" stop-color="#850000"/>
</linearGradient>
<linearGradient id="paint1_linear_104_1260" x1="26.4663" y1="12.9621" x2="13.5337" y2="25.8947" gradientUnits="userSpaceOnUse">
<stop stop-color="#FF0000"/>
<stop offset="1" stop-color="#850000"/>
</linearGradient>
</defs>
</svg>
