<svg width="40" height="40" viewBox="0 0 40 40" fill="none" xmlns="http://www.w3.org/2000/svg">
<g filter="url(#filter0_f_104_1282)">
<path d="M20 28.5716C25.0495 28.5716 29.1429 24.4782 29.1429 19.4287C29.1429 14.3793 25.0495 10.2859 20 10.2859C14.9506 10.2859 10.8572 14.3793 10.8572 19.4287C10.8572 24.4782 14.9506 28.5716 20 28.5716Z" fill="url(#paint0_linear_104_1282)"/>
<path d="M25.0535 16.2953C24.7315 16.4337 24.3932 16.5304 24.0466 16.5829C24.2092 16.5829 24.4469 16.264 24.5407 16.1452C24.6921 15.9602 24.8067 15.7479 24.8784 15.5198C24.8784 15.5198 24.8784 15.4823 24.8784 15.4698C24.8708 15.4654 24.8622 15.4631 24.8534 15.4631C24.8446 15.4631 24.836 15.4654 24.8284 15.4698C24.4491 15.6723 24.0456 15.8257 23.6277 15.9263C23.6153 15.9334 23.6013 15.9372 23.587 15.9372C23.5727 15.9372 23.5587 15.9334 23.5464 15.9263C23.5163 15.8879 23.4828 15.8523 23.4463 15.82C23.2715 15.6741 23.0754 15.556 22.8647 15.4698C22.5838 15.354 22.2798 15.3048 21.9767 15.326C21.6817 15.3451 21.3941 15.4261 21.1324 15.5636C20.8646 15.702 20.6291 15.8956 20.4415 16.1317C20.2539 16.3678 20.1185 16.6409 20.0443 16.9332C19.988 17.216 19.988 17.5071 20.0443 17.7899C20.0443 17.8399 20.0443 17.8462 20.0005 17.8399C18.4178 17.6779 16.9526 16.9308 15.8919 15.745C15.8481 15.6949 15.8231 15.6949 15.7793 15.745C15.5664 16.1395 15.4861 16.5921 15.5503 17.0358C15.6145 17.4796 15.8198 17.8908 16.1358 18.2089C16.2171 18.2839 16.2984 18.359 16.3859 18.4278C16.1116 18.4062 15.8441 18.3319 15.5979 18.2089C15.5479 18.2089 15.5229 18.2089 15.5167 18.2464C15.5107 18.3255 15.5107 18.405 15.5167 18.4841C15.5641 18.8532 15.709 19.2031 15.9365 19.4977C16.1641 19.7922 16.466 20.0209 16.8112 20.16C16.8945 20.1993 16.9829 20.2267 17.0738 20.2413C16.8174 20.2874 16.5548 20.2874 16.2984 20.2413C16.2421 20.2413 16.2171 20.2413 16.2421 20.3164C16.3753 20.664 16.5952 20.9717 16.8809 21.2103C17.1666 21.4489 17.5085 21.6105 17.8743 21.6797C17.9493 21.6797 18.0244 21.6797 18.0994 21.6797C18.0994 21.6797 18.1745 21.6797 18.0994 21.6797C17.7805 21.9663 17.3961 22.1703 16.98 22.2738C16.4374 22.4679 15.8594 22.5426 15.2853 22.4927C15.1977 22.4927 15.179 22.4927 15.1539 22.4927C15.1289 22.4927 15.1539 22.5302 15.1539 22.5489C15.267 22.6257 15.3839 22.6967 15.5041 22.7616C15.8643 22.9517 16.2437 23.1026 16.6361 23.2118C17.6472 23.5168 18.7206 23.5508 19.749 23.3105C20.7774 23.0701 21.7246 22.5638 22.4957 21.8423C23.0458 21.2482 23.4726 20.5511 23.7517 19.7912C24.0308 19.0312 24.1565 18.2235 24.1217 17.4147C24.1217 17.3521 24.1967 17.3146 24.2468 17.2834C24.5501 17.0457 24.8176 16.7656 25.041 16.4516C25.0785 16.4083 25.0985 16.3526 25.0973 16.2953C25.0973 16.2953 25.0973 16.2765 25.0535 16.2953Z" fill="white"/>
</g>
<path d="M20 28.5716C25.0495 28.5716 29.1429 24.4782 29.1429 19.4287C29.1429 14.3793 25.0495 10.2859 20 10.2859C14.9506 10.2859 10.8572 14.3793 10.8572 19.4287C10.8572 24.4782 14.9506 28.5716 20 28.5716Z" fill="url(#paint1_linear_104_1282)"/>
<path d="M25.0535 16.2953C24.7315 16.4337 24.3932 16.5304 24.0466 16.5829C24.2092 16.5829 24.4469 16.264 24.5407 16.1452C24.6921 15.9602 24.8067 15.7479 24.8784 15.5198C24.8784 15.5198 24.8784 15.4823 24.8784 15.4698C24.8708 15.4654 24.8622 15.4631 24.8534 15.4631C24.8446 15.4631 24.836 15.4654 24.8284 15.4698C24.4491 15.6723 24.0456 15.8257 23.6277 15.9263C23.6153 15.9334 23.6013 15.9372 23.587 15.9372C23.5727 15.9372 23.5587 15.9334 23.5464 15.9263C23.5163 15.8879 23.4828 15.8523 23.4463 15.82C23.2715 15.6741 23.0754 15.556 22.8647 15.4698C22.5838 15.354 22.2798 15.3048 21.9767 15.326C21.6817 15.3451 21.3941 15.4261 21.1324 15.5636C20.8646 15.702 20.6291 15.8956 20.4415 16.1317C20.2539 16.3678 20.1185 16.6409 20.0443 16.9332C19.988 17.216 19.988 17.5071 20.0443 17.7899C20.0443 17.8399 20.0443 17.8462 20.0005 17.8399C18.4178 17.6779 16.9526 16.9308 15.8919 15.745C15.8481 15.6949 15.8231 15.6949 15.7793 15.745C15.5664 16.1395 15.4861 16.5921 15.5503 17.0358C15.6145 17.4796 15.8198 17.8908 16.1358 18.2089C16.2171 18.2839 16.2984 18.359 16.3859 18.4278C16.1116 18.4062 15.8441 18.3319 15.5979 18.2089C15.5479 18.2089 15.5229 18.2089 15.5167 18.2464C15.5107 18.3255 15.5107 18.405 15.5167 18.4841C15.5641 18.8532 15.709 19.2031 15.9365 19.4977C16.1641 19.7922 16.466 20.0209 16.8112 20.16C16.8945 20.1993 16.9829 20.2267 17.0738 20.2413C16.8174 20.2874 16.5548 20.2874 16.2984 20.2413C16.2421 20.2413 16.2171 20.2413 16.2421 20.3164C16.3753 20.664 16.5952 20.9717 16.8809 21.2103C17.1666 21.4489 17.5085 21.6105 17.8743 21.6797C17.9493 21.6797 18.0244 21.6797 18.0994 21.6797C18.0994 21.6797 18.1745 21.6797 18.0994 21.6797C17.7805 21.9663 17.3961 22.1703 16.98 22.2738C16.4374 22.4679 15.8594 22.5426 15.2853 22.4927C15.1977 22.4927 15.179 22.4927 15.1539 22.4927C15.1289 22.4927 15.1539 22.5302 15.1539 22.5489C15.267 22.6257 15.3839 22.6967 15.5041 22.7616C15.8643 22.9517 16.2437 23.1026 16.6361 23.2118C17.6472 23.5168 18.7206 23.5508 19.749 23.3105C20.7774 23.0701 21.7246 22.5638 22.4957 21.8423C23.0458 21.2482 23.4726 20.5511 23.7517 19.7912C24.0308 19.0312 24.1565 18.2235 24.1217 17.4147C24.1217 17.3521 24.1967 17.3146 24.2468 17.2834C24.5501 17.0457 24.8176 16.7656 25.041 16.4516C25.0785 16.4083 25.0985 16.3526 25.0973 16.2953C25.0973 16.2953 25.0973 16.2765 25.0535 16.2953Z" fill="white"/>
<defs>
<filter id="filter0_f_104_1282" x="2.71764" y="2.14635" width="34.5647" height="34.5648" filterUnits="userSpaceOnUse" color-interpolation-filters="sRGB">
<feFlood flood-opacity="0" result="BackgroundImageFix"/>
<feBlend mode="normal" in="SourceGraphic" in2="BackgroundImageFix" result="shape"/>
<feGaussianBlur stdDeviation="4.06977" result="effect1_foregroundBlur_104_1282"/>
</filter>
<linearGradient id="paint0_linear_104_1282" x1="26.4663" y1="12.9625" x2="13.5337" y2="25.895" gradientUnits="userSpaceOnUse">
<stop stop-color="#33CCFF"/>
<stop offset="1" stop-color="#337FFF"/>
</linearGradient>
<linearGradient id="paint1_linear_104_1282" x1="26.4663" y1="12.9625" x2="13.5337" y2="25.895" gradientUnits="userSpaceOnUse">
<stop stop-color="#33CCFF"/>
<stop offset="1" stop-color="#337FFF"/>
</linearGradient>
</defs>
</svg>
