<svg width="24" height="24" viewBox="0 0 24 24" fill="none" xmlns="http://www.w3.org/2000/svg">
<path d="M10.5525 2.67514C10.9579 2.33447 11.4705 2.14771 12 2.14771C12.5295 2.14771 13.0421 2.33447 13.4475 2.67514L20.1975 8.35114C20.4488 8.56227 20.6508 8.82581 20.7894 9.12328C20.928 9.42075 20.9999 9.74495 21 10.0731V19.5006C21 19.8985 20.842 20.28 20.5607 20.5613C20.2794 20.8426 19.8978 21.0006 19.5 21.0006H15.375C14.9772 21.0006 14.5956 20.8426 14.3143 20.5613C14.033 20.28 13.875 19.8985 13.875 19.5006V14.2506H10.125V19.5006C10.125 19.8985 9.96696 20.28 9.68566 20.5613C9.40436 20.8426 9.02282 21.0006 8.625 21.0006H4.5C4.10218 21.0006 3.72064 20.8426 3.43934 20.5613C3.15804 20.28 3 19.8985 3 19.5006V10.0724C3.00008 9.7442 3.07196 9.42 3.21059 9.12253C3.34922 8.82506 3.55124 8.56152 3.8025 8.35039L10.5525 2.67439V2.67514Z" fill="#111111"/>
</svg>
