<svg width="24" height="24" viewBox="0 0 24 24" fill="none" xmlns="http://www.w3.org/2000/svg">
<path d="M6.60005 2.3999C6.12266 2.3999 5.66482 2.58954 5.32726 2.92711C4.98969 3.26468 4.80005 3.72251 4.80005 4.1999V19.7999C4.80005 20.2773 4.98969 20.7351 5.32726 21.0727C5.66482 21.4103 6.12266 21.5999 6.60005 21.5999H12.3084C11.4621 20.5772 10.9454 19.3221 10.8264 17.9999H9.00005C8.84092 17.9999 8.68831 17.9367 8.57578 17.8242C8.46326 17.7116 8.40005 17.559 8.40005 17.3999C8.40005 17.2408 8.46326 17.0882 8.57578 16.9756C8.68831 16.8631 8.84092 16.7999 9.00005 16.7999H10.8264C10.9668 15.2629 11.6412 13.8237 12.7325 12.7324C13.8239 11.6411 15.2631 10.9666 16.8 10.8263V4.1999C16.8 3.72251 16.6104 3.26468 16.2728 2.92711C15.9353 2.58954 15.4774 2.3999 15 2.3999H6.60005ZM22.8 17.3999C22.8 18.8321 22.2311 20.2056 21.2184 21.2183C20.2057 22.231 18.8322 22.7999 17.4 22.7999C15.9679 22.7999 14.5944 22.231 13.5817 21.2183C12.569 20.2056 12 18.8321 12 17.3999C12 15.9677 12.569 14.5942 13.5817 13.5815C14.5944 12.5688 15.9679 11.9999 17.4 11.9999C18.8322 11.9999 20.2057 12.5688 21.2184 13.5815C22.2311 14.5942 22.8 15.9677 22.8 17.3999ZM17.4 14.3999C17.2409 14.3999 17.0883 14.4631 16.9758 14.5756C16.8633 14.6882 16.8 14.8408 16.8 14.9999V17.3999C16.8 17.559 16.8633 17.7116 16.9758 17.8242C17.0883 17.9367 17.2409 17.9999 17.4 17.9999H19.2C19.3592 17.9999 19.5118 17.9367 19.6243 17.8242C19.7368 17.7116 19.8 17.559 19.8 17.3999C19.8 17.2408 19.7368 17.0882 19.6243 16.9756C19.5118 16.8631 19.3592 16.7999 19.2 16.7999H18V14.9999C18 14.8408 17.9368 14.6882 17.8243 14.5756C17.7118 14.4631 17.5592 14.3999 17.4 14.3999Z" fill="black"/>
</svg>
