<svg width="24" height="24" viewBox="0 0 24 24" fill="none" xmlns="http://www.w3.org/2000/svg">
<path d="M5.50004 15C6.37469 14.9974 7.21626 14.6653 7.85704 14.07L14.117 17.647C13.9073 18.4666 13.9998 19.3343 14.3775 20.0913C14.7552 20.8483 15.393 21.4439 16.174 21.7692C16.955 22.0944 17.827 22.1274 18.6304 21.8623C19.4338 21.5971 20.1148 21.0515 20.5488 20.3252C20.9827 19.599 21.1406 18.7408 20.9935 17.9076C20.8464 17.0745 20.4042 16.3222 19.7478 15.7885C19.0914 15.2548 18.2647 14.9753 17.419 15.0013C16.5734 15.0273 15.7655 15.357 15.143 15.93L8.88304 12.353C8.94904 12.103 8.98504 11.844 8.99104 11.585L15.141 8.06996C15.7332 8.60874 16.4927 8.92747 17.292 8.97268C18.0913 9.01789 18.8818 8.78684 19.531 8.31828C20.1802 7.84972 20.6484 7.17217 20.8572 6.39929C21.0661 5.6264 21.0027 4.80522 20.6779 4.0735C20.353 3.34178 19.7864 2.74404 19.0731 2.38056C18.3597 2.01708 17.5431 1.90998 16.7602 2.07723C15.9772 2.24447 15.2756 2.67588 14.7731 3.29909C14.2705 3.92229 13.9976 4.69937 14 5.49996C14.004 5.78796 14.043 6.07497 14.117 6.35296L8.43304 9.59997C8.10341 9.09003 7.6468 8.67461 7.10805 8.39454C6.56931 8.11446 5.96697 7.97936 5.36021 8.00251C4.75346 8.02566 4.16316 8.20627 3.64732 8.52658C3.13148 8.84689 2.70785 9.29589 2.41804 9.82946C2.12823 10.363 1.98222 10.9628 1.99435 11.5699C2.00648 12.177 2.17634 12.7704 2.48723 13.292C2.79812 13.8136 3.23936 14.2453 3.76758 14.5447C4.2958 14.8442 4.89284 15.0011 5.50004 15Z" fill="black"/>
</svg>
