<svg width="25" height="23" viewBox="0 0 25 23" fill="none" xmlns="http://www.w3.org/2000/svg">
<path d="M23.0439 11.2497L20.5993 8.63418L20.9399 5.1749L17.323 4.40617L15.4294 1.40625L12.0229 2.77496L8.61645 1.40625L6.72284 4.39679L3.10596 5.15615L3.44661 8.6248L1.00195 11.2497L3.44661 13.8653L3.10596 17.3339L6.72284 18.1027L8.61645 21.0932L12.0229 19.7151L15.4294 21.0838L17.323 18.0933L20.9399 17.3246L20.5993 13.8653L23.0439 11.2497ZM9.39794 15.009L7.0134 12.7591C6.92052 12.6723 6.84683 12.5693 6.79655 12.4559C6.74628 12.3425 6.7204 12.2209 6.7204 12.0981C6.7204 11.9754 6.74628 11.8538 6.79655 11.7404C6.84683 11.627 6.92052 11.524 7.0134 11.4372L7.08353 11.3716C7.47428 11.006 8.1155 11.006 8.50624 11.3716L10.1193 12.8903L15.2791 8.05294C15.6699 7.68733 16.3111 7.68733 16.7018 8.05294L16.772 8.11857C17.1627 8.48418 17.1627 9.07479 16.772 9.44041L10.8407 15.009C10.4299 15.3746 9.7987 15.3746 9.39794 15.009Z" fill="#1D9BF0"/>
<path d="M9.398 15.0088L7.01346 12.7589C6.92058 12.6722 6.84689 12.5692 6.79662 12.4557C6.74634 12.3423 6.72046 12.2208 6.72046 12.098C6.72046 11.9752 6.74634 11.8536 6.79662 11.7402C6.84689 11.6268 6.92058 11.5238 7.01346 11.4371L7.08359 11.3714C7.47434 11.0058 8.11556 11.0058 8.5063 11.3714L10.1194 12.8901L15.2792 8.05278C15.6699 7.68716 16.3112 7.68716 16.7019 8.05278L16.772 8.1184C17.1628 8.48401 17.1628 9.07462 16.772 9.44024L10.8407 15.0088C10.43 15.3745 9.79876 15.3745 9.398 15.0088Z" fill="#F5F8FA"/>
</svg>
