<svg width="24" height="24" viewBox="0 0 24 24" fill="none" xmlns="http://www.w3.org/2000/svg">
<path d="M19.1999 7.19998H4.1999V6.59998L17.3999 5.54398V6.59998H19.1999V4.79998C19.1999 3.47998 18.1307 2.55358 16.8251 2.73958L4.7759 4.46038C3.4691 4.64758 2.3999 5.87998 2.3999 7.19998V19.2C2.3999 19.8365 2.65276 20.447 3.10285 20.897C3.55293 21.3471 4.16338 21.6 4.7999 21.6H19.1999C19.8364 21.6 20.4469 21.3471 20.897 20.897C21.347 20.447 21.5999 19.8365 21.5999 19.2V9.59998C21.5999 8.96346 21.347 8.35301 20.897 7.90293C20.4469 7.45284 19.8364 7.19998 19.1999 7.19998ZM17.3999 15.6072C17.1634 15.6071 16.9293 15.5605 16.7109 15.4699C16.4925 15.3793 16.294 15.2466 16.1269 15.0794C15.9597 14.9121 15.8271 14.7136 15.7367 14.4951C15.6463 14.2766 15.5998 14.0424 15.5999 13.806C15.6 13.5695 15.6466 13.3354 15.7372 13.117C15.8278 12.8985 15.9605 12.7001 16.1277 12.5329C16.295 12.3658 16.4935 12.2332 16.712 12.1428C16.9305 12.0524 17.1646 12.0059 17.4011 12.006C17.8787 12.0061 18.3366 12.196 18.6741 12.5338C19.0117 12.8716 19.2013 13.3296 19.2011 13.8072C19.2009 14.2847 19.0111 14.7427 18.6733 15.0802C18.3355 15.4178 17.8774 15.6073 17.3999 15.6072Z" fill="black"/>
</svg>
